<?xml version="1.0" standalone="no"?>
<!DOCTYPE svg PUBLIC "-//W3C//DTD SVG 20010904//EN"
 "http://www.w3.org/TR/2001/REC-SVG-20010904/DTD/svg10.dtd">
<svg version="1.0" xmlns="http://www.w3.org/2000/svg"
 width="96.000000pt" height="96.000000pt" viewBox="0 0 96.000000 96.000000"
 preserveAspectRatio="xMidYMid meet">

<g transform="translate(0.000000,96.000000) scale(0.100000,-0.100000)"
fill="#000000" stroke="none">
<path d="M307 854 c-4 -4 -7 -31 -7 -61 l0 -53 -54 0 c-75 0 -111 -15 -130
-55 -22 -46 -24 -478 -2 -529 22 -52 45 -56 366 -56 321 0 344 4 366 56 17 42
20 473 3 522 -14 40 -61 62 -133 62 l-55 0 -3 58 c-2 43 -7 57 -18 57 -11 0
-16 -14 -18 -57 l-3 -58 -139 0 -139 0 -3 57 c-3 52 -14 73 -31 57z m-4 -174
c3 -11 10 -20 17 -20 7 0 14 9 17 20 5 19 14 20 143 20 129 0 138 -1 143 -20
3 -11 10 -20 17 -20 7 0 14 9 17 20 5 17 14 20 64 20 81 0 99 -19 99 -100 l0
-60 -340 0 -340 0 0 60 c0 81 18 100 99 100 50 0 59 -3 64 -20z m517 -340 c0
-147 -2 -162 -20 -180 -19 -19 -33 -20 -320 -20 -287 0 -301 1 -320 20 -18 18
-20 33 -20 180 l0 160 340 0 340 0 0 -160z"/>
<path d="M345 329 c-15 -24 16 -30 141 -27 107 3 129 6 129 18 0 12 -23 15
-132 18 -89 2 -134 -1 -138 -9z"/>
</g>
</svg>
