<?xml version="1.0" standalone="no"?>
<!DOCTYPE svg PUBLIC "-//W3C//DTD SVG 20010904//EN"
 "http://www.w3.org/TR/2001/REC-SVG-20010904/DTD/svg10.dtd">
<svg version="1.0" xmlns="http://www.w3.org/2000/svg"
 width="56.000000pt" height="56.000000pt" viewBox="0 0 56.000000 56.000000"
 preserveAspectRatio="xMidYMid meet">

<g transform="translate(0.000000,56.000000) scale(0.100000,-0.100000)"
fill="#000000" stroke="none">
<path d="M195 471 c-168 -78 -164 -314 7 -385 134 -56 288 48 288 194 0 150
-160 253 -295 191z m173 -28 c70 -33 112 -128 91 -205 -24 -92 -87 -141 -179
-141 -167 0 -248 195 -130 313 59 59 138 71 218 33z"/>
<path d="M270 320 l0 -50 65 0 c37 0 65 4 65 10 0 6 -25 10 -55 10 l-55 0 0
40 c0 22 -4 40 -10 40 -5 0 -10 -22 -10 -50z"/>
</g>
</svg>
