<?xml version="1.0" standalone="no"?>
<!DOCTYPE svg PUBLIC "-//W3C//DTD SVG 20010904//EN"
 "http://www.w3.org/TR/2001/REC-SVG-20010904/DTD/svg10.dtd">
<svg version="1.0" xmlns="http://www.w3.org/2000/svg"
 width="64.000000pt" height="64.000000pt" viewBox="0 0 64.000000 64.000000"
 preserveAspectRatio="xMidYMid meet">

<g transform="translate(0.000000,64.000000) scale(0.100000,-0.100000)"
fill="#000000" stroke="none">
<path d="M219 512 c-107 -56 -148 -178 -95 -286 28 -58 97 -127 159 -161 37
-19 37 -19 74 0 60 33 130 102 157 157 57 114 17 236 -96 292 -70 35 -129 35
-199 -2z m168 -27 c50 -21 72 -42 94 -90 23 -49 24 -94 4 -143 -18 -42 -83
-113 -132 -143 l-33 -21 -32 21 c-50 30 -115 101 -133 143 -19 47 -19 89 0
135 21 50 42 72 90 94 49 23 94 24 142 4z"/>
<path d="M285 421 c-94 -41 -91 -173 5 -202 74 -22 151 47 135 121 -13 57 -91
102 -140 81z m60 -41 c52 -20 52 -100 0 -120 -55 -21 -106 30 -85 85 8 21 24
33 57 44 1 1 13 -3 28 -9z"/>
</g>
</svg>
