<?xml version="1.0" standalone="no"?>
<!DOCTYPE svg PUBLIC "-//W3C//DTD SVG 20010904//EN"
 "http://www.w3.org/TR/2001/REC-SVG-20010904/DTD/svg10.dtd">
<svg version="1.0" xmlns="http://www.w3.org/2000/svg"
 width="96.000000pt" height="96.000000pt" viewBox="0 0 96.000000 96.000000"
 preserveAspectRatio="xMidYMid meet">

<g transform="translate(0.000000,96.000000) scale(0.100000,-0.100000)"
fill="#000000" stroke="none">
<path d="M460 686 c-277 -94 -290 -99 -290 -126 0 -23 15 -32 134 -75 l93 -34
94 95 c92 93 114 105 137 82 23 -23 11 -44 -78 -133 -49 -49 -90 -97 -90 -106
0 -20 43 -146 64 -187 24 -46 52 -42 76 11 35 76 171 507 168 530 -2 17 -10
22 -33 24 -16 1 -140 -35 -275 -81z"/>
</g>
</svg>
