<?xml version="1.0" standalone="no"?>
<!DOCTYPE svg PUBLIC "-//W3C//DTD SVG 20010904//EN"
 "http://www.w3.org/TR/2001/REC-SVG-20010904/DTD/svg10.dtd">
<svg version="1.0" xmlns="http://www.w3.org/2000/svg"
 width="96.000000pt" height="96.000000pt" viewBox="0 0 96.000000 96.000000"
 preserveAspectRatio="xMidYMid meet">
<metadata>
Created by potrace 1.10, written by Peter Selinger 2001-2011
</metadata>
<g transform="translate(0.000000,96.000000) scale(0.100000,-0.100000)"
fill="#000000" stroke="none">
<path d="M420 873 c-82 -28 -141 -82 -164 -151 -9 -25 -16 -79 -16 -121 0 -91
-12 -137 -51 -201 -35 -57 -37 -84 -7 -104 19 -14 65 -16 305 -16 280 0 282 0
297 22 22 31 20 54 -8 91 -39 51 -48 85 -56 207 -8 127 -19 158 -76 214 -54
52 -161 81 -224 59z m151 -56 c24 -13 57 -42 73 -65 27 -37 30 -51 36 -159 8
-125 17 -159 56 -210 49 -64 54 -63 -256 -63 -310 0 -305 -1 -256 63 38 51 56
119 56 214 0 68 5 96 21 130 49 101 172 142 270 90z"/>
<path d="M370 230 c-13 -8 -13 -14 4 -44 45 -84 162 -86 211 -4 15 27 16 32 2
45 -14 14 -17 12 -31 -15 -38 -74 -114 -68 -161 11 -7 12 -14 14 -25 7z"/>
</g>
</svg>
