<svg xmlns="http://www.w3.org/2000/svg" width="69" height="24" fill="none">
  <path fill="#272727" d="M18.5 14c1.4 0 2.5 1.1 2.5 2.5S19.9 19 18.5 19 16 17.9 16 16.5s1.1-2.5 2.5-2.5ZM7 15s1 1 1 2v3.5c0 .8.7 1.5 1.5 1.5s1.5-.7 1.5-1.5V17c0-1 1-2 1-2H7Zm1-1h3s5 0 5-5-4-7-6.5-7S3 4 3 9s5 5 5 5ZM28.96 18V6.8h3.584c.597 0 1.136.147 1.616.44.48.288.861.68 1.144 1.176a3.21 3.21 0 0 1 .432 1.656c0 .619-.147 1.176-.44 1.672a3.228 3.228 0 0 1-1.16 1.176c-.48.288-1.01.432-1.592.432H30.08V18h-1.12Zm1.12-5.768h2.376c.395 0 .755-.096 1.08-.288a2.201 2.201 0 0 0 1.08-1.928c0-.421-.099-.797-.296-1.128a2.109 2.109 0 0 0-.784-.792 2.042 2.042 0 0 0-1.08-.296H30.08v4.432ZM37.499 10h1.12v8h-1.12v-8Zm.568-1.4a.662.662 0 0 1-.464-.176.62.62 0 0 1-.184-.456c0-.181.061-.33.184-.448a.646.646 0 0 1 .464-.184.61.61 0 0 1 .448.184.581.581 0 0 1 .192.448.62.62 0 0 1-.184.456.634.634 0 0 1-.456.176Zm9.743 4.448V18h-1.12v-4.728c0-.437-.106-.835-.32-1.192a2.438 2.438 0 0 0-.856-.856 2.282 2.282 0 0 0-1.192-.32c-.432 0-.829.107-1.192.32a2.436 2.436 0 0 0-.856.856 2.28 2.28 0 0 0-.32 1.192V18h-1.12v-8h1.12v1.104c.283-.405.651-.728 1.104-.968.454-.24.947-.36 1.48-.36.603 0 1.152.147 1.648.44.496.293.891.688 1.184 1.184.294.496.44 1.045.44 1.648ZM55.936 10h1.12v8.296c0 .512-.112.992-.336 1.44-.218.448-.517.84-.896 1.176a4.18 4.18 0 0 1-1.28.8c-.48.192-.978.288-1.496.288-.554 0-1.09-.128-1.608-.384a4.42 4.42 0 0 1-1.352-1.008 3.755 3.755 0 0 1-.808-1.4l1.032-.472c.102.4.29.76.568 1.08.283.325.614.581.992.768.384.192.776.288 1.176.288a2.8 2.8 0 0 0 1.064-.208c.347-.133.656-.317.928-.552.278-.235.496-.51.656-.824.16-.31.24-.64.24-.992v-1.768a3.383 3.383 0 0 1-1.128 1.216c-.47.31-1.016.464-1.64.464-.56 0-1.088-.11-1.584-.328a4.145 4.145 0 0 1-1.296-.904 4.38 4.38 0 0 1-.88-1.344A4.255 4.255 0 0 1 49.096 14c0-.581.104-1.125.312-1.632.214-.512.507-.96.88-1.344.374-.39.806-.693 1.296-.912a3.883 3.883 0 0 1 1.584-.328c.624 0 1.17.155 1.64.464.475.304.85.71 1.128 1.216V10Zm-2.76 7.12c.555 0 1.032-.144 1.432-.432a2.82 2.82 0 0 0 .936-1.144c.219-.475.328-.99.328-1.544 0-.57-.112-1.09-.336-1.56a2.762 2.762 0 0 0-.936-1.136c-.405-.288-.88-.432-1.424-.432-.544 0-1.04.141-1.488.424a3.028 3.028 0 0 0-1.056 1.128c-.261.475-.392 1-.392 1.576a3.163 3.163 0 0 0 1.464 2.704c.448.277.939.416 1.472.416ZM59.224 10h1.12v8h-1.12v-8Zm.568-1.4a.662.662 0 0 1-.464-.176.62.62 0 0 1-.184-.456c0-.181.062-.33.184-.448a.646.646 0 0 1 .464-.184.61.61 0 0 1 .448.184.581.581 0 0 1 .192.448.62.62 0 0 1-.184.456.634.634 0 0 1-.456.176Zm5.209 9.552a4.06 4.06 0 0 1-1.28-.24 3.593 3.593 0 0 1-1.088-.608 2.232 2.232 0 0 1-.664-.872l.968-.416c.085.208.242.4.472.576.234.17.501.31.8.416.298.101.594.152.888.152.325 0 .63-.053.912-.16.282-.107.512-.259.688-.456.181-.203.272-.44.272-.712 0-.293-.096-.523-.288-.688a2.03 2.03 0 0 0-.728-.4 20.022 20.022 0 0 0-.904-.288 11.328 11.328 0 0 1-1.496-.512c-.432-.187-.77-.424-1.016-.712-.24-.293-.36-.67-.36-1.128 0-.485.136-.904.408-1.256a2.698 2.698 0 0 1 1.08-.824 3.513 3.513 0 0 1 1.432-.296c.65 0 1.242.141 1.776.424.538.283.928.659 1.168 1.128l-.904.536a1.448 1.448 0 0 0-.456-.568 2.452 2.452 0 0 0-.712-.376 2.643 2.643 0 0 0-1.752.008 1.66 1.66 0 0 0-.712.456c-.176.203-.264.45-.264.744 0 .293.088.517.264.672.176.15.413.272.712.368.304.09.645.197 1.024.32.485.155.941.33 1.368.528a3.1 3.1 0 0 1 1.032.736c.261.293.39.664.384 1.112 0 .48-.144.899-.432 1.256a2.793 2.793 0 0 1-1.12.824 3.57 3.57 0 0 1-1.472.256Z"/>
</svg>