<svg xmlns="http://www.w3.org/2000/svg" width="87" height="24" fill="none">
  <path fill="#272727" d="M19.003 8.004a2.002 2.002 0 1 0 0-4.004 2.002 2.002 0 0 0 0 4.004ZM18.875 13.22c-.567.452-.978.78-1.878.78-.899 0-1.288-.31-1.876-.78-.68-.544-1.525-1.22-3.127-1.22-1.601 0-2.445.676-3.124 1.22-.588.47-.975.78-1.875.78-.898 0-1.286-.31-1.873-.78C4.443 12.676 3.6 12 2 12v2c.897 0 1.285.311 1.872.78.679.544 1.523 1.22 3.123 1.22 1.6 0 2.446-.676 3.125-1.22.587-.47.976-.78 1.874-.78.9 0 1.311.328 1.878.781.679.543 1.524 1.22 3.125 1.22 1.602 0 2.447-.677 3.127-1.22.588-.47.977-.78 1.876-.78v-2c-1.601 0-2.446.675-3.125 1.218ZM16.997 19c-.899 0-1.288-.31-1.876-.78-.68-.544-1.525-1.22-3.127-1.22-1.601 0-2.445.676-3.124 1.22-.588.47-.975.78-1.875.78-.898 0-1.286-.31-1.873-.78C4.443 17.676 3.6 17 2 17v2c.897 0 1.285.311 1.872.78.679.544 1.523 1.22 3.123 1.22 1.6 0 2.446-.676 3.125-1.22.587-.47.976-.78 1.874-.78.9 0 1.311.328 1.878.781.679.543 1.524 1.22 3.125 1.22 1.602 0 2.447-.677 3.127-1.22.588-.47.977-.78 1.876-.78v-2c-1.601 0-2.446.675-3.125 1.218-.567.453-.978.781-1.878.781ZM11 5.42l2.104 2.103-2.057 2.57c.286-.056.596-.093.947-.093 1.602 0 2.447.676 3.127 1.22.588.47.977.78 1.876.78.9 0 1.311-.328 1.878-.78.132-.106.274-.218.423-.327l-2.096-2.09.005-.005-5.5-5.5a1 1 0 0 0-1.414 0l-4 4 1.414 1.414L11 5.42ZM32.872 18.208a5.453 5.453 0 0 1-1.736-.28 4.481 4.481 0 0 1-1.456-.8 2.832 2.832 0 0 1-.88-1.24l1.048-.392c.117.33.33.616.64.856.315.235.68.416 1.096.544.421.128.85.192 1.288.192.512 0 .99-.085 1.432-.256.443-.17.8-.408 1.072-.712.272-.31.408-.672.408-1.088 0-.421-.141-.768-.424-1.04-.283-.272-.648-.485-1.096-.64a8.33 8.33 0 0 0-1.392-.368 11.392 11.392 0 0 1-2.056-.544c-.603-.23-1.08-.552-1.432-.968-.352-.421-.528-.976-.528-1.664 0-.645.187-1.205.56-1.68a3.68 3.68 0 0 1 1.472-1.104 5.008 5.008 0 0 1 1.984-.392c.581 0 1.15.09 1.704.272a4.459 4.459 0 0 1 1.464.792c.427.347.733.77.92 1.272l-1.064.384a1.798 1.798 0 0 0-.648-.856 3.257 3.257 0 0 0-1.088-.544 4.355 4.355 0 0 0-1.288-.192 3.711 3.711 0 0 0-1.424.256c-.437.17-.792.41-1.064.72a1.556 1.556 0 0 0-.408 1.072c0 .48.125.85.376 1.112.256.256.603.448 1.04.576.437.128.93.243 1.48.344a8.911 8.911 0 0 1 1.992.576c.613.256 1.107.6 1.48 1.032.373.427.56.955.56 1.584 0 .64-.187 1.2-.56 1.68-.373.475-.867.843-1.48 1.104a4.992 4.992 0 0 1-1.992.392ZM38.968 10h1.12v8h-1.12v-8Zm.567-1.4a.662.662 0 0 1-.463-.176.62.62 0 0 1-.184-.456c0-.181.06-.33.184-.448a.646.646 0 0 1 .463-.184.61.61 0 0 1 .449.184.581.581 0 0 1 .191.448.62.62 0 0 1-.183.456.634.634 0 0 1-.456.176Zm2.768 9.4v-8h1.12v1.104a3.17 3.17 0 0 1 1.104-.968c.448-.24.939-.36 1.472-.36.603 0 1.155.15 1.656.448.502.293.893.685 1.176 1.176.283-.49.672-.883 1.168-1.176a3.134 3.134 0 0 1 1.648-.448c.603 0 1.152.147 1.648.44.496.293.89.688 1.184 1.184.294.496.44 1.045.44 1.648V18H53.8v-4.704c0-.427-.104-.821-.312-1.184a2.438 2.438 0 0 0-.84-.872 2.092 2.092 0 0 0-1.16-.336 2.269 2.269 0 0 0-2 1.16 2.404 2.404 0 0 0-.312 1.232V18h-1.12v-4.704c0-.464-.104-.875-.312-1.232a2.25 2.25 0 0 0-.84-.848 2.253 2.253 0 0 0-1.168-.312c-.421 0-.808.112-1.16.336-.352.219-.632.51-.84.872a2.339 2.339 0 0 0-.312 1.184V18h-1.12Zm21.515-4.952V18h-1.12v-4.728c0-.437-.107-.835-.32-1.192a2.438 2.438 0 0 0-.856-.856 2.282 2.282 0 0 0-1.192-.32c-.432 0-.83.107-1.192.32a2.436 2.436 0 0 0-.856.856 2.28 2.28 0 0 0-.32 1.192V18h-1.12v-8h1.12v1.104c.282-.405.65-.728 1.104-.968.453-.24.947-.36 1.48-.36.602 0 1.152.147 1.648.44.496.293.89.688 1.184 1.184.293.496.44 1.045.44 1.648ZM65.74 10h1.12v8h-1.12v-8Zm.568-1.4a.662.662 0 0 1-.464-.176.62.62 0 0 1-.184-.456c0-.181.061-.33.184-.448a.646.646 0 0 1 .464-.184.61.61 0 0 1 .448.184.581.581 0 0 1 .192.448.62.62 0 0 1-.184.456.634.634 0 0 1-.456.176Zm9.744 4.448V18h-1.12v-4.728a2.28 2.28 0 0 0-.32-1.192 2.436 2.436 0 0 0-.856-.856 2.281 2.281 0 0 0-1.192-.32c-.432 0-.83.107-1.192.32a2.438 2.438 0 0 0-.856.856c-.214.357-.32.755-.32 1.192V18h-1.12v-8h1.12v1.104a3.08 3.08 0 0 1 1.104-.968c.453-.24.946-.36 1.48-.36.602 0 1.152.147 1.648.44.496.293.89.688 1.184 1.184.293.496.44 1.045.44 1.648ZM84.177 10h1.12v8.296c0 .512-.111.992-.335 1.44a3.77 3.77 0 0 1-.897 1.176 4.18 4.18 0 0 1-1.28.8c-.48.192-.978.288-1.495.288-.555 0-1.091-.128-1.609-.384a4.42 4.42 0 0 1-1.352-1.008 3.753 3.753 0 0 1-.807-1.4l1.031-.472c.102.4.291.76.569 1.08.282.325.613.581.992.768.383.192.775.288 1.175.288a2.8 2.8 0 0 0 1.064-.208c.347-.133.657-.317.928-.552.278-.235.496-.51.656-.824.16-.31.24-.64.24-.992v-1.768a3.383 3.383 0 0 1-1.128 1.216c-.469.31-1.016.464-1.64.464-.56 0-1.088-.11-1.584-.328a4.143 4.143 0 0 1-1.296-.904 4.378 4.378 0 0 1-.88-1.344A4.255 4.255 0 0 1 77.338 14c0-.581.104-1.125.312-1.632.213-.512.506-.96.88-1.344.373-.39.805-.693 1.296-.912a3.883 3.883 0 0 1 1.584-.328c.624 0 1.17.155 1.64.464.474.304.85.71 1.127 1.216V10Zm-2.76 7.12c.555 0 1.032-.144 1.433-.432.405-.288.717-.67.936-1.144.218-.475.328-.99.328-1.544 0-.57-.113-1.09-.337-1.56a2.763 2.763 0 0 0-.936-1.136c-.405-.288-.88-.432-1.423-.432-.544 0-1.04.141-1.489.424a3.027 3.027 0 0 0-1.055 1.128c-.262.475-.392 1-.392 1.576a3.162 3.162 0 0 0 1.463 2.704c.449.277.94.416 1.473.416Z"/>
</svg>